<?xml version="1.0" encoding="UTF-8" standalone="no"?>
<!DOCTYPE svg PUBLIC "-//W3C//DTD SVG 1.1//EN"
 "http://www.w3.org/Graphics/SVG/1.1/DTD/svg11.dtd">
<!-- Generated by graphviz version 5.0.0 (20220707.1540)
 -->
<!-- Title: dependencies Pages: 1 -->
<svg width="838pt" height="174pt"
 viewBox="0.00 0.00 838.00 173.80" xmlns="http://www.w3.org/2000/svg" xmlns:xlink="http://www.w3.org/1999/xlink">
<g id="graph0" class="graph" transform="scale(1 1) rotate(0) translate(4 169.8)">
<title>dependencies</title>
<polygon fill="white" stroke="transparent" points="-4,4 -4,-169.8 834,-169.8 834,4 -4,4"/>
<text text-anchor="middle" x="415" y="-8.2" font-family="sans-serif" font-size="14.00">dependencies</text>
<g id="clust1" class="cluster">
<title>cluster_ProtectedModule</title>
<polygon fill="none" stroke="black" stroke-dasharray="1,5" points="8,-32.8 8,-157.8 822,-157.8 822,-32.8 8,-32.8"/>
</g>
<g id="clust2" class="cluster">
<title>cluster_ProtectedModule_declarations</title>
<polygon fill="none" stroke="black" points="198,-40.8 198,-92.8 814,-92.8 814,-40.8 198,-40.8"/>
</g>
<g id="clust7" class="cluster">
<title>cluster_ProtectedModule_imports</title>
<polygon fill="none" stroke="black" points="16,-40.8 16,-92.8 190,-92.8 190,-40.8 16,-40.8"/>
</g>
<!-- BusquedaComponent -->
<g id="node1" class="node">
<title>BusquedaComponent</title>
<polygon fill="#ffffb3" stroke="black" points="806.05,-84.8 669.95,-84.8 669.95,-48.8 806.05,-48.8 806.05,-84.8"/>
<text text-anchor="middle" x="738" y="-62.6" font-family="Times,serif" font-size="14.00">BusquedaComponent</text>
</g>
<!-- ProtectedModule -->
<g id="node5" class="node">
<title>ProtectedModule</title>
<polygon fill="#8dd3c7" stroke="black" points="487.42,-149.8 484.42,-153.8 463.42,-153.8 460.42,-149.8 374.58,-149.8 374.58,-113.8 487.42,-113.8 487.42,-149.8"/>
<text text-anchor="middle" x="431" y="-127.6" font-family="Times,serif" font-size="14.00">ProtectedModule</text>
</g>
<!-- BusquedaComponent&#45;&gt;ProtectedModule -->
<g id="edge1" class="edge">
<title>BusquedaComponent&#45;&gt;ProtectedModule</title>
<path fill="none" stroke="black" d="M738,-85.08C738,-106.12 738,-137.8 738,-137.8 738,-137.8 497.31,-137.8 497.31,-137.8"/>
<polygon fill="black" stroke="black" points="497.31,-134.3 487.31,-137.8 497.31,-141.3 497.31,-134.3"/>
</g>
<!-- CatalogoComponent -->
<g id="node2" class="node">
<title>CatalogoComponent</title>
<polygon fill="#ffffb3" stroke="black" points="651.88,-84.8 520.12,-84.8 520.12,-48.8 651.88,-48.8 651.88,-84.8"/>
<text text-anchor="middle" x="586" y="-62.6" font-family="Times,serif" font-size="14.00">CatalogoComponent</text>
</g>
<!-- CatalogoComponent&#45;&gt;ProtectedModule -->
<g id="edge2" class="edge">
<title>CatalogoComponent&#45;&gt;ProtectedModule</title>
<path fill="none" stroke="black" d="M586,-84.82C586,-102.17 586,-125.8 586,-125.8 586,-125.8 497.4,-125.8 497.4,-125.8"/>
<polygon fill="black" stroke="black" points="497.4,-122.3 487.4,-125.8 497.4,-129.3 497.4,-122.3"/>
</g>
<!-- DashboardComponent -->
<g id="node3" class="node">
<title>DashboardComponent</title>
<polygon fill="#ffffb3" stroke="black" points="501.98,-84.8 360.02,-84.8 360.02,-48.8 501.98,-48.8 501.98,-84.8"/>
<text text-anchor="middle" x="431" y="-62.6" font-family="Times,serif" font-size="14.00">DashboardComponent</text>
</g>
<!-- DashboardComponent&#45;&gt;ProtectedModule -->
<g id="edge3" class="edge">
<title>DashboardComponent&#45;&gt;ProtectedModule</title>
<path fill="none" stroke="black" d="M431,-84.91C431,-84.91 431,-103.79 431,-103.79"/>
<polygon fill="black" stroke="black" points="427.5,-103.79 431,-113.79 434.5,-103.79 427.5,-103.79"/>
</g>
<!-- PersonajeComponent -->
<g id="node4" class="node">
<title>PersonajeComponent</title>
<polygon fill="#ffffb3" stroke="black" points="341.76,-84.8 206.24,-84.8 206.24,-48.8 341.76,-48.8 341.76,-84.8"/>
<text text-anchor="middle" x="274" y="-62.6" font-family="Times,serif" font-size="14.00">PersonajeComponent</text>
</g>
<!-- PersonajeComponent&#45;&gt;ProtectedModule -->
<g id="edge4" class="edge">
<title>PersonajeComponent&#45;&gt;ProtectedModule</title>
<path fill="none" stroke="black" d="M274,-84.82C274,-102.17 274,-125.8 274,-125.8 274,-125.8 364.76,-125.8 364.76,-125.8"/>
<polygon fill="black" stroke="black" points="364.76,-129.3 374.76,-125.8 364.76,-122.3 364.76,-129.3"/>
</g>
<!-- ProtectedRoutingModule -->
<g id="node6" class="node">
<title>ProtectedRoutingModule</title>
<polygon fill="#8dd3c7" stroke="black" points="181.54,-84.8 178.54,-88.8 157.54,-88.8 154.54,-84.8 24.46,-84.8 24.46,-48.8 181.54,-48.8 181.54,-84.8"/>
<text text-anchor="middle" x="103" y="-62.6" font-family="Times,serif" font-size="14.00">ProtectedRoutingModule</text>
</g>
<!-- ProtectedRoutingModule&#45;&gt;ProtectedModule -->
<g id="edge5" class="edge">
<title>ProtectedRoutingModule&#45;&gt;ProtectedModule</title>
<path fill="none" stroke="black" d="M103,-85.08C103,-106.12 103,-137.8 103,-137.8 103,-137.8 364.61,-137.8 364.61,-137.8"/>
<polygon fill="black" stroke="black" points="364.61,-141.3 374.61,-137.8 364.61,-134.3 364.61,-141.3"/>
</g>
</g>
</svg>
