<?xml version="1.0" encoding="UTF-8" standalone="no"?>
<!DOCTYPE svg PUBLIC "-//W3C//DTD SVG 1.1//EN"
 "http://www.w3.org/Graphics/SVG/1.1/DTD/svg11.dtd">
<!-- Generated by graphviz version 5.0.0 (20220707.1540)
 -->
<!-- Title: dependencies Pages: 1 -->
<svg width="684pt" height="174pt"
 viewBox="0.00 0.00 684.00 173.80" xmlns="http://www.w3.org/2000/svg" xmlns:xlink="http://www.w3.org/1999/xlink">
<g id="graph0" class="graph" transform="scale(1 1) rotate(0) translate(4 169.8)">
<title>dependencies</title>
<polygon fill="white" stroke="transparent" points="-4,4 -4,-169.8 680,-169.8 680,4 -4,4"/>
<text text-anchor="middle" x="338" y="-8.2" font-family="sans-serif" font-size="14.00">dependencies</text>
<g id="clust1" class="cluster">
<title>cluster_ProtectedModule</title>
<polygon fill="none" stroke="black" stroke-dasharray="1,5" points="8,-32.8 8,-157.8 668,-157.8 668,-32.8 8,-32.8"/>
</g>
<g id="clust2" class="cluster">
<title>cluster_ProtectedModule_declarations</title>
<polygon fill="none" stroke="black" points="198,-40.8 198,-92.8 660,-92.8 660,-40.8 198,-40.8"/>
</g>
<g id="clust6" class="cluster">
<title>cluster_ProtectedModule_imports</title>
<polygon fill="none" stroke="black" points="16,-40.8 16,-92.8 190,-92.8 190,-40.8 16,-40.8"/>
</g>
<!-- CatalogoComponent -->
<g id="node1" class="node">
<title>CatalogoComponent</title>
<polygon fill="#ffffb3" stroke="black" points="651.88,-84.8 520.12,-84.8 520.12,-48.8 651.88,-48.8 651.88,-84.8"/>
<text text-anchor="middle" x="586" y="-62.6" font-family="Times,serif" font-size="14.00">CatalogoComponent</text>
</g>
<!-- ProtectedModule -->
<g id="node4" class="node">
<title>ProtectedModule</title>
<polygon fill="#8dd3c7" stroke="black" points="408.42,-149.8 405.42,-153.8 384.42,-153.8 381.42,-149.8 295.58,-149.8 295.58,-113.8 408.42,-113.8 408.42,-149.8"/>
<text text-anchor="middle" x="352" y="-127.6" font-family="Times,serif" font-size="14.00">ProtectedModule</text>
</g>
<!-- CatalogoComponent&#45;&gt;ProtectedModule -->
<g id="edge1" class="edge">
<title>CatalogoComponent&#45;&gt;ProtectedModule</title>
<path fill="none" stroke="black" d="M586,-84.91C586,-104.14 586,-131.8 586,-131.8 586,-131.8 418.35,-131.8 418.35,-131.8"/>
<polygon fill="black" stroke="black" points="418.35,-128.3 408.35,-131.8 418.35,-135.3 418.35,-128.3"/>
</g>
<!-- DashboardComponent -->
<g id="node2" class="node">
<title>DashboardComponent</title>
<polygon fill="#ffffb3" stroke="black" points="501.98,-84.8 360.02,-84.8 360.02,-48.8 501.98,-48.8 501.98,-84.8"/>
<text text-anchor="middle" x="431" y="-62.6" font-family="Times,serif" font-size="14.00">DashboardComponent</text>
</g>
<!-- DashboardComponent&#45;&gt;ProtectedModule -->
<g id="edge2" class="edge">
<title>DashboardComponent&#45;&gt;ProtectedModule</title>
<path fill="none" stroke="black" d="M384.11,-84.91C384.11,-84.91 384.11,-103.79 384.11,-103.79"/>
<polygon fill="black" stroke="black" points="380.61,-103.79 384.11,-113.79 387.61,-103.79 380.61,-103.79"/>
</g>
<!-- PersonajeComponent -->
<g id="node3" class="node">
<title>PersonajeComponent</title>
<polygon fill="#ffffb3" stroke="black" points="341.76,-84.8 206.24,-84.8 206.24,-48.8 341.76,-48.8 341.76,-84.8"/>
<text text-anchor="middle" x="274" y="-62.6" font-family="Times,serif" font-size="14.00">PersonajeComponent</text>
</g>
<!-- PersonajeComponent&#45;&gt;ProtectedModule -->
<g id="edge3" class="edge">
<title>PersonajeComponent&#45;&gt;ProtectedModule</title>
<path fill="none" stroke="black" d="M318.83,-84.91C318.83,-84.91 318.83,-103.79 318.83,-103.79"/>
<polygon fill="black" stroke="black" points="315.33,-103.79 318.83,-113.79 322.33,-103.79 315.33,-103.79"/>
</g>
<!-- ProtectedRoutingModule -->
<g id="node5" class="node">
<title>ProtectedRoutingModule</title>
<polygon fill="#8dd3c7" stroke="black" points="181.54,-84.8 178.54,-88.8 157.54,-88.8 154.54,-84.8 24.46,-84.8 24.46,-48.8 181.54,-48.8 181.54,-84.8"/>
<text text-anchor="middle" x="103" y="-62.6" font-family="Times,serif" font-size="14.00">ProtectedRoutingModule</text>
</g>
<!-- ProtectedRoutingModule&#45;&gt;ProtectedModule -->
<g id="edge4" class="edge">
<title>ProtectedRoutingModule&#45;&gt;ProtectedModule</title>
<path fill="none" stroke="black" d="M103,-84.91C103,-104.14 103,-131.8 103,-131.8 103,-131.8 285.5,-131.8 285.5,-131.8"/>
<polygon fill="black" stroke="black" points="285.5,-135.3 295.5,-131.8 285.5,-128.3 285.5,-135.3"/>
</g>
</g>
</svg>
