<?xml version="1.0" encoding="UTF-8" standalone="no"?>
<!DOCTYPE svg PUBLIC "-//W3C//DTD SVG 1.1//EN"
 "http://www.w3.org/Graphics/SVG/1.1/DTD/svg11.dtd">
<!-- Generated by graphviz version 5.0.0 (20220707.1540)
 -->
<!-- Title: dependencies Pages: 1 -->
<svg width="601pt" height="174pt"
 viewBox="0.00 0.00 601.00 173.80" xmlns="http://www.w3.org/2000/svg" xmlns:xlink="http://www.w3.org/1999/xlink">
<g id="graph0" class="graph" transform="scale(1 1) rotate(0) translate(4 169.8)">
<title>dependencies</title>
<polygon fill="white" stroke="transparent" points="-4,4 -4,-169.8 597,-169.8 597,4 -4,4"/>
<text text-anchor="middle" x="296.5" y="-8.2" font-family="sans-serif" font-size="14.00">dependencies</text>
<g id="clust1" class="cluster">
<title>cluster_AuthModule</title>
<polygon fill="none" stroke="black" stroke-dasharray="1,5" points="8,-32.8 8,-157.8 585,-157.8 585,-32.8 8,-32.8"/>
</g>
<g id="clust6" class="cluster">
<title>cluster_AuthModule_imports</title>
<polygon fill="none" stroke="black" points="429,-40.8 429,-92.8 577,-92.8 577,-40.8 429,-40.8"/>
</g>
<g id="clust2" class="cluster">
<title>cluster_AuthModule_declarations</title>
<polygon fill="none" stroke="black" points="16,-40.8 16,-92.8 421,-92.8 421,-40.8 16,-40.8"/>
</g>
<!-- LoginComponent -->
<g id="node1" class="node">
<title>LoginComponent</title>
<polygon fill="#ffffb3" stroke="black" points="413.27,-84.8 298.73,-84.8 298.73,-48.8 413.27,-48.8 413.27,-84.8"/>
<text text-anchor="middle" x="356" y="-62.6" font-family="Times,serif" font-size="14.00">LoginComponent</text>
</g>
<!-- AuthModule -->
<g id="node4" class="node">
<title>AuthModule</title>
<polygon fill="#8dd3c7" stroke="black" points="333.55,-149.8 330.55,-153.8 309.55,-153.8 306.55,-149.8 246.45,-149.8 246.45,-113.8 333.55,-113.8 333.55,-149.8"/>
<text text-anchor="middle" x="290" y="-127.6" font-family="Times,serif" font-size="14.00">AuthModule</text>
</g>
<!-- LoginComponent&#45;&gt;AuthModule -->
<g id="edge1" class="edge">
<title>LoginComponent&#45;&gt;AuthModule</title>
<path fill="none" stroke="black" d="M316.19,-84.91C316.19,-84.91 316.19,-103.79 316.19,-103.79"/>
<polygon fill="black" stroke="black" points="312.69,-103.79 316.19,-113.79 319.69,-103.79 312.69,-103.79"/>
</g>
<!-- MainComponent -->
<g id="node2" class="node">
<title>MainComponent</title>
<polygon fill="#ffffb3" stroke="black" points="280.38,-84.8 169.62,-84.8 169.62,-48.8 280.38,-48.8 280.38,-84.8"/>
<text text-anchor="middle" x="225" y="-62.6" font-family="Times,serif" font-size="14.00">MainComponent</text>
</g>
<!-- MainComponent&#45;&gt;AuthModule -->
<g id="edge2" class="edge">
<title>MainComponent&#45;&gt;AuthModule</title>
<path fill="none" stroke="black" d="M263.33,-84.91C263.33,-84.91 263.33,-103.79 263.33,-103.79"/>
<polygon fill="black" stroke="black" points="259.83,-103.79 263.33,-113.79 266.83,-103.79 259.83,-103.79"/>
</g>
<!-- RegisterComponent -->
<g id="node3" class="node">
<title>RegisterComponent</title>
<polygon fill="#ffffb3" stroke="black" points="151.99,-84.8 24.01,-84.8 24.01,-48.8 151.99,-48.8 151.99,-84.8"/>
<text text-anchor="middle" x="88" y="-62.6" font-family="Times,serif" font-size="14.00">RegisterComponent</text>
</g>
<!-- RegisterComponent&#45;&gt;AuthModule -->
<g id="edge3" class="edge">
<title>RegisterComponent&#45;&gt;AuthModule</title>
<path fill="none" stroke="black" d="M88,-84.91C88,-104.14 88,-131.8 88,-131.8 88,-131.8 236.17,-131.8 236.17,-131.8"/>
<polygon fill="black" stroke="black" points="236.17,-135.3 246.17,-131.8 236.17,-128.3 236.17,-135.3"/>
</g>
<!-- AuthRoutingModule -->
<g id="node5" class="node">
<title>AuthRoutingModule</title>
<polygon fill="#8dd3c7" stroke="black" points="569.17,-84.8 566.17,-88.8 545.17,-88.8 542.17,-84.8 436.83,-84.8 436.83,-48.8 569.17,-48.8 569.17,-84.8"/>
<text text-anchor="middle" x="503" y="-62.6" font-family="Times,serif" font-size="14.00">AuthRoutingModule</text>
</g>
<!-- AuthRoutingModule&#45;&gt;AuthModule -->
<g id="edge4" class="edge">
<title>AuthRoutingModule&#45;&gt;AuthModule</title>
<path fill="none" stroke="black" d="M503,-84.91C503,-104.14 503,-131.8 503,-131.8 503,-131.8 343.62,-131.8 343.62,-131.8"/>
<polygon fill="black" stroke="black" points="343.62,-128.3 333.62,-131.8 343.62,-135.3 343.62,-128.3"/>
</g>
</g>
</svg>
